<svg xmlns="http://www.w3.org/2000/svg" viewBox="0 0 160 96" role="img" aria-labelledby="applePayTitle applePayDesc">
  <title id="applePayTitle">Apple Pay logo</title>
  <desc id="applePayDesc">Rounded rectangle with Apple Pay wordmark.</desc>
  <rect width="160" height="96" rx="16" fill="#ffffff" />
  <path d="M32 32h96v32H32z" fill="#000000" />
  <path d="M48 46c2-6 6-10 9-10-1 4-4 8-9 10m9-12c2 0 6-2 8-5-1 4-4 7-8 9M68 44c0-4 3-8 7-8a6 6 0 015 3c-2 1-3 3-3 5s1 4 3 5a6 6 0 01-5 3c-4 0-7-4-7-8m18-7h5l4 11 4-11h5l-7 18h-4zm29 4h-7v4h6v4h-6v6h-4V41c0-3 2-5 5-5h6z" fill="#ffffff" />
</svg>
