<svg xmlns="http://www.w3.org/2000/svg" viewBox="0 0 160 96" role="img" aria-labelledby="visaTitle visaDesc">
  <title id="visaTitle">Visa logo</title>
  <desc id="visaDesc">Rounded rectangle bearing the Visa logotype.</desc>
  <rect width="160" height="96" rx="16" fill="#ffffff" />
  <rect x="16" y="24" width="128" height="48" rx="12" fill="#1a1f71" />
  <path d="M42 56l6-24h12l-6 24zM96 37c2 0 7 1 7 1l-1 6s-4-1-6-1c-2 0-3 1-3 2s1 2 5 3c6 2 9 4 8 8-1 4-5 7-11 7-4 0-9-1-9-1l1-6s4 1 8 1c2 0 3-1 3-2 0-2-2-2-5-3-5-2-8-4-7-8 1-4 5-7 10-7M72 32l7 24h9l11-24h-9l-7 17-4-17zM54 32l-12 24H30l3-24z" fill="#fff" />
</svg>
